<svg width="56" height="64" viewBox="0 0 56 64" fill="none" xmlns="http://www.w3.org/2000/svg">
<g filter="url(#filter0_d_745_882)">
<path d="M28 55C28 55 50 40.7486 50 24.2727C50 12.5241 40.1503 3 28 3C15.8497 3 6 12.5241 6 24.2727C6 40.7486 28 55 28 55Z" fill="white"/>
<path d="M28 55C28 55 50 40.7486 50 24.2727C50 12.5241 40.1503 3 28 3C15.8497 3 6 12.5241 6 24.2727C6 40.7486 28 55 28 55Z" stroke="white" stroke-width="2" stroke-linejoin="round"/>
</g>
<path d="M28 41C36.8365 41 44 33.8365 44 25C44 16.1635 36.8365 9 28 9C19.1635 9 12 16.1635 12 25C12 33.8365 19.1635 41 28 41Z" fill="#F7A016"/>
<path d="M19.666 20H36.3327V23.3333L35.75 23.683C34.8263 24.2372 33.6724 24.2372 32.7487 23.683L32.166 23.3333L31.5833 23.683C30.6596 24.2372 29.5057 24.2372 28.5821 23.683L27.9993 23.3333L27.4166 23.683C26.493 24.2372 25.3391 24.2372 24.4154 23.683L23.8327 23.3333L23.25 23.683C22.3263 24.2372 21.1724 24.2372 20.2487 23.683L19.666 23.3333V20Z" fill="white" stroke="white" stroke-width="2" stroke-linecap="round" stroke-linejoin="round"/>
<path d="M21.334 24.3703V33.3333H34.6673V24.1666" stroke="white" stroke-width="2" stroke-linecap="round" stroke-linejoin="round"/>
<path d="M21.334 19.9259V16.6666H34.6673V20" stroke="white" stroke-width="2" stroke-linecap="round" stroke-linejoin="round"/>
<path d="M30.0827 28.3334H25.916V33.3334H30.0827V28.3334Z" fill="white" stroke="white" stroke-width="2" stroke-linecap="round" stroke-linejoin="round"/>
<defs>
<filter id="filter0_d_745_882" x="0" y="0" width="56" height="64" filterUnits="userSpaceOnUse" color-interpolation-filters="sRGB">
<feFlood flood-opacity="0" result="BackgroundImageFix"/>
<feColorMatrix in="SourceAlpha" type="matrix" values="0 0 0 0 0 0 0 0 0 0 0 0 0 0 0 0 0 0 127 0" result="hardAlpha"/>
<feOffset dy="3"/>
<feGaussianBlur stdDeviation="2.5"/>
<feComposite in2="hardAlpha" operator="out"/>
<feColorMatrix type="matrix" values="0 0 0 0 0 0 0 0 0 0 0 0 0 0 0 0 0 0 0.25 0"/>
<feBlend mode="normal" in2="BackgroundImageFix" result="effect1_dropShadow_745_882"/>
<feBlend mode="normal" in="SourceGraphic" in2="effect1_dropShadow_745_882" result="shape"/>
</filter>
</defs>
</svg>
