<svg width="56" height="64" viewBox="0 0 56 64" fill="none" xmlns="http://www.w3.org/2000/svg">
<g filter="url(#filter0_d_80_781)">
<path d="M28 55C28 55 50 40.7486 50 24.2727C50 12.5241 40.1503 3 28 3C15.8497 3 6 12.5241 6 24.2727C6 40.7486 28 55 28 55Z" fill="white"/>
<path d="M28 55C28 55 50 40.7486 50 24.2727C50 12.5241 40.1503 3 28 3C15.8497 3 6 12.5241 6 24.2727C6 40.7486 28 55 28 55Z" stroke="white" stroke-width="2" stroke-linejoin="round"/>
</g>
<path d="M28 41C36.8365 41 44 33.8365 44 25C44 16.1635 36.8365 9 28 9C19.1635 9 12 16.1635 12 25C12 33.8365 19.1635 41 28 41Z" fill="#4F4F4F"/>
<path d="M19.6667 20H36.3334V23.3333L35.7507 23.683C34.827 24.2372 33.6731 24.2372 32.7495 23.683L32.1667 23.3333L31.584 23.683C30.6604 24.2372 29.5065 24.2372 28.5828 23.683L28.0001 23.3333L27.4174 23.683C26.4937 24.2372 25.3398 24.2372 24.4161 23.683L23.8334 23.3333L23.2507 23.683C22.327 24.2372 21.1731 24.2372 20.2495 23.683L19.6667 23.3333V20Z" fill="white" stroke="white" stroke-width="2" stroke-linecap="round" stroke-linejoin="round"/>
<path d="M21.3333 24.3705V33.3334H34.6666V24.1667" stroke="white" stroke-width="2" stroke-linecap="round" stroke-linejoin="round"/>
<path d="M21.3333 19.926V16.6667H34.6666V20.0001" stroke="white" stroke-width="2" stroke-linecap="round" stroke-linejoin="round"/>
<path d="M30.0834 28.3333H25.9167V33.3333H30.0834V28.3333Z" fill="white" stroke="white" stroke-width="2" stroke-linecap="round" stroke-linejoin="round"/>
<defs>
<filter id="filter0_d_80_781" x="0" y="0" width="56" height="64" filterUnits="userSpaceOnUse" color-interpolation-filters="sRGB">
<feFlood flood-opacity="0" result="BackgroundImageFix"/>
<feColorMatrix in="SourceAlpha" type="matrix" values="0 0 0 0 0 0 0 0 0 0 0 0 0 0 0 0 0 0 127 0" result="hardAlpha"/>
<feOffset dy="3"/>
<feGaussianBlur stdDeviation="2.5"/>
<feComposite in2="hardAlpha" operator="out"/>
<feColorMatrix type="matrix" values="0 0 0 0 0 0 0 0 0 0 0 0 0 0 0 0 0 0 0.25 0"/>
<feBlend mode="normal" in2="BackgroundImageFix" result="effect1_dropShadow_80_781"/>
<feBlend mode="normal" in="SourceGraphic" in2="effect1_dropShadow_80_781" result="shape"/>
</filter>
</defs>
</svg>
