<svg width="25" height="25" viewBox="0 0 25 25" fill="none" xmlns="http://www.w3.org/2000/svg">
<path d="M2.5 6.5H22.5V10.5L21.8008 10.9195C20.6924 11.5846 19.3076 11.5846 18.1992 10.9195L17.5 10.5L16.8008 10.9195C15.6924 11.5846 14.3077 11.5846 13.1993 10.9195L12.5 10.5L11.8007 10.9195C10.6923 11.5846 9.30765 11.5846 8.19925 10.9195L7.5 10.5L6.80075 10.9195C5.69235 11.5846 4.30765 11.5846 3.19927 10.9195L2.5 10.5V6.5Z" stroke="#333333" stroke-width="2" stroke-linecap="round" stroke-linejoin="round"/>
<path d="M4.5 11.7444V22.5H20.5V11.5" stroke="#333333" stroke-width="2" stroke-linecap="round" stroke-linejoin="round"/>
<path d="M4.5 6.4111V2.5H20.5V6.5" stroke="#333333" stroke-width="2" stroke-linecap="round" stroke-linejoin="round"/>
<path d="M15 16.5H10V22.5H15V16.5Z" stroke="#333333" stroke-width="2" stroke-linecap="round" stroke-linejoin="round"/>
</svg>
