<svg width="56" height="64" viewBox="0 0 56 64" fill="none" xmlns="http://www.w3.org/2000/svg">
<g filter="url(#filter0_d_80_761)">
<path d="M28 55C28 55 50 40.7486 50 24.2727C50 12.5241 40.1503 3 28 3C15.8497 3 6 12.5241 6 24.2727C6 40.7486 28 55 28 55Z" fill="white"/>
<path d="M28 55C28 55 50 40.7486 50 24.2727C50 12.5241 40.1503 3 28 3C15.8497 3 6 12.5241 6 24.2727C6 40.7486 28 55 28 55Z" stroke="white" stroke-width="2" stroke-linejoin="round"/>
</g>
<path d="M28 41C36.8365 41 44 33.8365 44 25C44 16.1635 36.8365 9 28 9C19.1635 9 12 16.1635 12 25C12 33.8365 19.1635 41 28 41Z" fill="#4F4F4F"/>
<path d="M32.5833 16.6667H22.5833C22.1231 16.6667 21.75 17.0398 21.75 17.5001V30.8334C21.75 31.2937 22.1231 31.6667 22.5833 31.6667H32.5833C33.0436 31.6667 33.4167 31.2937 33.4167 30.8334V17.5001C33.4167 17.0398 33.0436 16.6667 32.5833 16.6667Z" fill="white" stroke="white" stroke-width="2" stroke-linejoin="round"/>
<path d="M21.75 24.1667H33.4167" stroke="#4F4F4F" stroke-width="2" stroke-linecap="round" stroke-linejoin="round"/>
<path d="M21.75 23.3333V24.9999" stroke="white" stroke-width="2" stroke-linecap="round" stroke-linejoin="round"/>
<path d="M33.4167 23.3333V24.9999" stroke="white" stroke-width="2" stroke-linecap="round" stroke-linejoin="round"/>
<path d="M24.25 27.0833V28.7499" stroke="#4F4F4F" stroke-width="2" stroke-linecap="round" stroke-linejoin="round"/>
<path d="M24.25 19.5833V21.2499" stroke="#4F4F4F" stroke-width="2" stroke-linecap="round" stroke-linejoin="round"/>
<path d="M31.75 31.6667V33.3334" stroke="white" stroke-width="2" stroke-linecap="round" stroke-linejoin="round"/>
<path d="M23.4167 31.6667V33.3334" stroke="white" stroke-width="2" stroke-linecap="round" stroke-linejoin="round"/>
<defs>
<filter id="filter0_d_80_761" x="0" y="0" width="56" height="64" filterUnits="userSpaceOnUse" color-interpolation-filters="sRGB">
<feFlood flood-opacity="0" result="BackgroundImageFix"/>
<feColorMatrix in="SourceAlpha" type="matrix" values="0 0 0 0 0 0 0 0 0 0 0 0 0 0 0 0 0 0 127 0" result="hardAlpha"/>
<feOffset dy="3"/>
<feGaussianBlur stdDeviation="2.5"/>
<feComposite in2="hardAlpha" operator="out"/>
<feColorMatrix type="matrix" values="0 0 0 0 0 0 0 0 0 0 0 0 0 0 0 0 0 0 0.25 0"/>
<feBlend mode="normal" in2="BackgroundImageFix" result="effect1_dropShadow_80_761"/>
<feBlend mode="normal" in="SourceGraphic" in2="effect1_dropShadow_80_761" result="shape"/>
</filter>
</defs>
</svg>
