<svg width="255" height="255" viewBox="0 0 255 255" fill="none" xmlns="http://www.w3.org/2000/svg">
<path d="M85.0013 41.0016C89.4236 43.9501 89.7413 49.0116 90.3813 54.6916C91.4213 62.2916 93.2613 67.8316 98.0013 74.0016C98.6013 74.9116 99.2013 75.8116 99.8113 76.7516C107.481 84.6416 116.581 88.0416 127.441 88.4416C139.161 88.1216 148.191 83.2216 156.191 74.8816C162.481 67.0316 163.258 57.7842 165.251 48.1316C166.001 44.5015 167.501 41.4022 171.001 40.0016C174.502 38.601 181.502 39.0017 184.001 41.0016C186.501 43.0015 189.001 45.5015 189.241 49.0416C190.318 64.9014 183.991 82.3116 173.001 94.0016C158.351 107.512 141.991 113.602 122.031 112.852C105.221 111.012 90.1213 103.872 79.0013 91.0016C76.6213 88.0116 76.0009 86.9997 75.0009 85.4997C74.0009 83.9997 73.3525 82.7695 73.0013 82.0016C68.4913 72.1416 65.6913 61.9997 65.6913 52.8816C65.6913 51.7009 65.5375 50.5218 65.5713 49.3016C65.6903 45.0034 66.7844 43.3001 70 41.0013C73.4997 38.4995 80.5 38.0004 85.0013 41.0016Z" fill="#345E3D"/>
<circle cx="127" cy="53" r="24" fill="#345E3D"/>
<path d="M21.2149 145.435C26.2171 147.232 30.4725 144.474 35.4167 141.605C42.1416 137.915 47.688 136.094 55.4674 136.228C56.5557 136.168 57.636 136.114 58.7544 136.045C69.6604 137.508 77.8107 142.794 84.599 151.281C91.321 160.887 92.7617 171.059 90.8254 182.452C88.2646 192.18 81.298 198.31 74.7304 205.66C72.2605 208.424 70.6639 211.474 71.6231 215.121C72.5822 218.767 77.0725 224.152 80.1677 224.969C83.2629 225.786 86.76 226.306 89.7471 224.391C103.13 215.811 113.349 200.361 116.196 184.571C118.326 164.757 113.476 147.987 100.988 132.399C89.4994 119.99 74.7716 112.111 57.8105 110.841C53.9911 110.71 52.8088 110.814 51.0083 110.904C49.2078 110.993 47.8333 111.205 47.0072 111.38C36.4004 113.628 26.5854 117.418 19.2602 122.848C18.3117 123.551 17.2728 124.13 16.3127 124.883C12.9305 127.538 12.2137 129.432 12.2818 133.384C12.3559 137.685 16.1234 143.606 21.2149 145.435Z" fill="#345E3D"/>
<path d="M21.2149 145.435C26.2171 147.232 30.4725 144.474 35.4167 141.605C42.1416 137.915 47.688 136.094 55.4674 136.228C56.5557 136.168 57.636 136.114 58.7544 136.045C69.6604 137.508 77.8107 142.794 84.599 151.281C91.321 160.887 92.7617 171.059 90.8254 182.452C88.2646 192.18 81.298 198.31 74.7304 205.66C72.2605 208.424 70.6639 211.474 71.6231 215.121C72.5822 218.767 77.0725 224.152 80.1677 224.969C83.2629 225.786 86.76 226.306 89.7471 224.391C103.13 215.811 113.349 200.361 116.196 184.571C118.326 164.757 113.476 147.987 100.988 132.399C89.4994 119.99 74.7716 112.111 57.8105 110.841C53.9911 110.71 52.8088 110.814 51.0083 110.904C49.2078 110.993 47.8333 111.205 47.0072 111.38C36.4004 113.628 26.5854 117.418 19.2602 122.848C18.3117 123.551 17.2728 124.13 16.3127 124.883C12.9305 127.538 12.2137 129.432 12.2818 133.384C12.3559 137.685 16.1234 143.606 21.2149 145.435Z" fill="#345E3D"/>
<circle cx="24" cy="24" r="24" transform="matrix(0.595482 0.803368 0.803368 -0.595482 22.291 167.042)" fill="#345E3D"/>
<circle cx="24" cy="24" r="24" transform="matrix(0.595482 0.803368 0.803368 -0.595482 22.291 167.042)" fill="#345E3D"/>
<path d="M233.914 145.435C228.912 147.232 224.656 144.474 219.712 141.605C212.987 137.915 207.441 136.094 199.662 136.228C198.573 136.168 197.493 136.114 196.374 136.045C185.469 137.508 177.318 142.794 170.53 151.281C163.808 160.887 162.367 171.059 164.303 182.452C166.864 192.18 173.831 198.31 180.398 205.66C182.868 208.424 184.465 211.474 183.506 215.121C182.547 218.767 178.056 224.152 174.961 224.969C171.866 225.786 168.369 226.306 165.382 224.391C151.999 215.811 141.78 200.361 138.933 184.571C136.803 164.757 141.653 147.987 154.141 132.399C165.629 119.99 180.357 112.111 197.318 110.841C201.138 110.71 202.32 110.814 204.121 110.904C205.921 110.993 207.296 111.205 208.122 111.38C218.728 113.628 228.543 117.418 235.869 122.848C236.817 123.551 237.856 124.13 238.816 124.883C242.198 127.538 242.915 129.432 242.847 133.384C242.773 137.685 239.005 143.606 233.914 145.435Z" fill="#345E3D"/>
<path d="M233.914 145.435C228.912 147.232 224.656 144.474 219.712 141.605C212.987 137.915 207.441 136.094 199.662 136.228C198.573 136.168 197.493 136.114 196.374 136.045C185.469 137.508 177.318 142.794 170.53 151.281C163.808 160.887 162.367 171.059 164.303 182.452C166.864 192.18 173.831 198.31 180.398 205.66C182.868 208.424 184.465 211.474 183.506 215.121C182.547 218.767 178.056 224.152 174.961 224.969C171.866 225.786 168.369 226.306 165.382 224.391C151.999 215.811 141.78 200.361 138.933 184.571C136.803 164.757 141.653 147.987 154.141 132.399C165.629 119.99 180.357 112.111 197.318 110.841C201.138 110.71 202.32 110.814 204.121 110.904C205.921 110.993 207.296 111.205 208.122 111.38C218.728 113.628 228.543 117.418 235.869 122.848C236.817 123.551 237.856 124.13 238.816 124.883C242.198 127.538 242.915 129.432 242.847 133.384C242.773 137.685 239.005 143.606 233.914 145.435Z" fill="#345E3D"/>
<circle cx="199.265" cy="172.031" r="24" transform="rotate(126.547 199.265 172.031)" fill="#345E3D"/>
<circle cx="199.265" cy="172.031" r="24" transform="rotate(126.547 199.265 172.031)" fill="#345E3D"/>
</svg>
